# xmcd CD database file
#
# Track frame offsets:
#	150
#	10680
#	20705
#	31930
#	41990
#	52322
#	63340
#	75475
#	88112
#	99495
#	112222
#	123762
#	135200
#	145990
#	161700
#	174167
#	186055
#	196917
#	207235
#	217747
#	230342
#	242010
#	255960
#	267812
#	278672
#	293327
#
# Disc length: 4049 seconds
#
# Revision: 2
# Processed by: cddbd v1.4PL0 Copyright (c) Steve Scherf et al.
# Submitted via: CDex 1.50
#
DISCID=5f0fcf1a
DTITLE=Curtis Mayfield and The Impressions - The Anthology 1961-1977 [CD1]
DYEAR=1992
DGENRE=Revival
TTITLE0=Gypsy Woman
TTITLE1=Grow Closer Together
TTITLE2=Never Let Me Go
TTITLE3=Little Young Lover
TTITLE4=Minstrel And Queen
TTITLE5=I'm The One Who Loves You
TTITLE6=Sad Sad Girl And Boy
TTITLE7=It's All Right
TTITLE8=Talking About My Baby
TTITLE9=I'm So Proud
TTITLE10=Keep On Pushing
TTITLE11=You Must Believe Me
TTITLE12=See The Real Me
TTITLE13=Amen
TTITLE14=I've Been Trying
TTITLE15=People Get Ready
TTITLE16=It's Hard To Believe
TTITLE17=Woman's Got Soul
TTITLE18=Meeting Over Yonder
TTITLE19=I Need You
TTITLE20=You've Been Cheatin'
TTITLE21=Man Oh Man
TTITLE22=Can't Satisfy
TTITLE23=We're A Winner
TTITLE24=I Loved And I Lost
TTITLE25=We're Rolling On (Part One)
EXTD=YEAR: 1992
EXTT0=
EXTT1=
EXTT2=
EXTT3=
EXTT4=
EXTT5=
EXTT6=
EXTT7=
EXTT8=
EXTT9=
EXTT10=
EXTT11=
EXTT12=
EXTT13=
EXTT14=
EXTT15=
EXTT16=
EXTT17=
EXTT18=
EXTT19=
EXTT20=
EXTT21=
EXTT22=
EXTT23=
EXTT24=
EXTT25=
PLAYORDER=
